<svg xmlns="http://www.w3.org/2000/svg" viewBox="0 0 1200 420" fill="none">
  <defs>
    <linearGradient id="bridgeStroke" x1="600" y1="24" x2="600" y2="320" gradientUnits="userSpaceOnUse">
      <stop stop-color="#C18A61" stop-opacity=".9"/>
      <stop offset=".52" stop-color="#B2774F" stop-opacity=".78"/>
      <stop offset="1" stop-color="#9C6642" stop-opacity=".56"/>
    </linearGradient>
    <linearGradient id="bridgeWash" x1="600" y1="56" x2="600" y2="336" gradientUnits="userSpaceOnUse">
      <stop stop-color="#D4A176" stop-opacity=".28"/>
      <stop offset="1" stop-color="#B97E53" stop-opacity=".1"/>
    </linearGradient>
    <filter id="soften" x="-10%" y="-20%" width="120%" height="150%">
      <feGaussianBlur stdDeviation="0.6"/>
    </filter>
  </defs>

  <g filter="url(#soften)" stroke="url(#bridgeStroke)" stroke-linecap="round" stroke-linejoin="round">
    <path d="M46 168C166 107 321 63 507 51c60-4 121-4 183 0 179 11 334 53 463 119" stroke-width="6"/>
    <path d="M72 191C186 129 337 91 507 80c61-4 123-4 185 0 165 11 315 47 436 111" stroke-width="10"/>
    <path d="M66 208C142 163 235 135 344 118c99-15 197-17 293-13 180 8 332 39 497 110" stroke-width="4" opacity=".52"/>
    <path d="M144 228c87-54 196-84 329-92 84-5 170-2 257 8 90 10 187 31 293 64 36 11 67 22 93 34" stroke-width="13"/>
    <path d="M108 238c77-56 184-95 318-109 76-8 155-9 236-4 180 11 341 55 485 132" stroke-width="5" opacity=".66"/>

    <path d="M152 214v-48M218 188v-40M286 166v-32M354 149v-24M423 135v-22M491 125v-18M560 118v-15M640 118v-15M709 125v-18M777 135v-22M846 149v-24M914 166v-32M982 188v-40M1048 214v-48" stroke-width="12"/>
    <path d="M146 168h21M210 149h16M278 133h16M346 121h16M414 112h18M482 103h18M551 99h18M631 99h18M700 103h18M768 112h18M836 121h16M904 133h16M972 149h16M1036 168h18" stroke-width="8"/>
    <path d="M158 181c25-9 46-14 61-14M226 159c22-7 41-10 56-11M294 140c20-5 39-8 56-8M362 127c20-4 40-6 57-6M430 116c20-2 39-4 57-4M499 107c20-2 40-2 57-2M579 103c19 0 38 0 57 2M647 107c18 0 37 2 57 4M716 116c18 1 37 3 57 6M784 127c17 1 36 3 57 8M852 140c15 1 34 4 56 11M920 159c14 1 33 5 56 11M988 181c16 3 37 8 61 16" stroke-width="5" opacity=".72"/>

    <path d="M156 224c29 17 59 29 91 38 84 24 165 33 248 37 86 4 173 1 259-10 98-13 188-35 274-73 31-14 61-30 89-48" stroke-width="18"/>
    <path d="M209 276c67 14 137 20 214 22 112 2 226-8 334-29 104-20 198-49 286-91" stroke-width="6" opacity=".6"/>

    <path d="M106 226 74 371" stroke-width="20" opacity=".7"/>
    <path d="M1084 226 1116 371" stroke-width="20" opacity=".7"/>
    <path d="M236 258 218 379" stroke-width="14" opacity=".46"/>
    <path d="M966 258 984 379" stroke-width="14" opacity=".46"/>

    <path d="M105 230H72M1095 230h33" stroke-width="10" opacity=".58"/>
  </g>

  <path d="M126 223c28 16 56 28 87 36 81 22 162 30 243 34 85 4 171 1 256-10 97-12 188-34 271-70 31-13 60-29 89-46" stroke="url(#bridgeWash)" stroke-width="34" stroke-linecap="round" opacity=".34"/>
</svg>
